<?xml version="1.0" encoding="utf-8"?>
<!-- Generator: Adobe Illustrator 22.0.0, SVG Export Plug-In . SVG Version: 6.00 Build 0)  -->
<svg version="1.1" id="Layer_1" xmlns="http://www.w3.org/2000/svg" xmlns:xlink="http://www.w3.org/1999/xlink" x="0px" y="0px"
	 viewBox="0 0 324 168" style="enable-background:new 0 0 324 168;" xml:space="preserve">
<style type="text/css">
	.st0{fill-rule:evenodd;clip-rule:evenodd;fill:#F37321;}
	.st1{fill-rule:evenodd;clip-rule:evenodd;fill:#449D46;}
	.st2{fill:none;stroke:#FFFFFF;stroke-width:1.2174;stroke-miterlimit:2.6131;}
	.st3{fill-rule:evenodd;clip-rule:evenodd;fill:#354395;}
</style>
<g>
	<path class="st0" d="M159.9,31.9c3-1.9,6.8-3.6,11.9-5.3c3.9-1.3,5.5-0.7,9.5-1.8c1.9-0.5,13.1-3.2,16.8-4.3
		c3.9-1.1,8.8-1.7,14.8-2.1c6-0.5,14.4-1.1,18.5-1.2c4.1-0.2,13.1-0.3,18.1,0.2c5.1,0.5,4.6,0.4,5.8,1.2c1.1,0.9,1.6,0.6,1.8,0.4
		c0.2-0.3-1.1-1-1.1-1s1.8,0.4,3.6,0.8c1.8,0.4,3.2,0.4,3.8,0.5c0.5,0.2,0.4,0.8,1,0.8c0.5,0,2.5-0.2,3.9,0.4
		c1.5,0.5,2.5,0.4,3.2,0.7c0.7,0.4,0.7,0.6,1.1,0.6c0.5,0,0.4-0.4,1.4,0c0.9,0.4,2.8,0.8,4.9,1.5c2.2,0.7,3.2,0.8,4.3,1.3
		c1.2,0.5,1.8,1.5,2.4,1.7c0,0-1.4-0.1-2.8-0.2c-1.4-0.1-5.3-0.3-6-0.4c-1.1-0.2-2.3-1.3-3.9-1.5c-1.6-0.2-2.1,0.5-3.2,0.5
		c-1.1,0-0.4-1-1.9-0.9c-1.5,0.1-2.1,0.2-2.5,0.2c-0.3-0.1,0.1,0.7-0.1,0.7c-0.3,0.1-3.9-0.1-5-0.2c-1-0.1-2.8-1-4.9-1.1
		c-2.1-0.1-4.1,0.3-6.3,0.9c-2.2,0.6-5.9,0-10.7,0.4c-4.7,0.3-13.2,1.4-18.8,2.4c-5.6,1.1-7.6,0.6-12.1,1.6c-4.6,1-5.6,1.1-7.8,1.5
		c-2.2,0.4-7.4,2.4-10.1,3.5c-2.7,1.2-5.5,1.5-7,1.5s-2.5-0.5-4.5-0.5c-1.9,0-7.3,1.1-7.2,3.1c0,0-1,0-2,0.3
		c-1.1,0.4-3.5,1.1-4.8,1.7c-1.3,0.7-3,0.1-3.4,0c-0.4-0.2-1.2-0.2-1.6,0.1c0,0,0.1-0.6-0.2-0.9c-0.4-0.4-1.2-1.6-1.2-2.5
		C157.6,35.6,157.8,33.2,159.9,31.9L159.9,31.9z"/>
	<path class="st1" d="M298.7,40.6c1.1,0.7,2.4,1.6,2.4,1.7c0,0,0.4,0.3-2.5-0.4c-1.3-0.4-5.4-0.5-6-0.7c-1.9-0.4-2.9-1.4-4-1.6
		c-1.7-0.2-2.5,0.6-3.1,0.5c-1.3-0.1-0.2-1-1.6-0.9c-1.5,0-2.4,0.1-2.6,0.1c-0.4-0.1-0.2,0.7-0.4,0.8c-0.3,0-3.8-0.4-4.8-0.4
		c-1.6-0.3-3.1-1.1-5.3-1.2c-2.1-0.2-3.4,0.2-6.1,0.6c-2.4,0.4-6-0.2-11-0.1c-4.8,0.2-13.4,0.8-19.2,1.6c-5.8,0.7-7.8,0.2-12.4,1
		c-4.6,0.7-5.7,0.8-8,1.1c-2.3,0.3-7.5,1.8-10.3,2.8c-2.8,1-5.7,1.1-7.3,1.1c-1.5-0.1-2.5-0.5-4.5-0.6c-2-0.1-7.9,0.7-7.8,2.5
		c0,0-1-0.1-2.1,0.2c-1.1,0.3-3.2,0.7-4.6,1.3c-1.4,0.5-3.1-0.1-3.5-0.2c-0.4-0.1-1.3-0.2-1.6,0c0,0,0.1-0.4-0.2-0.8
		c-0.4-0.3-1.2-1.4-1.2-2.2c0-0.8,0.4-2.8,2.5-3.9c3.1-1.6,7-3,12.2-4.4c4-1.1,5.7-0.5,9.6-1.3c2-0.4,13.5-2.5,17.4-3.3
		c3.9-0.8,9-1.1,15.2-1.3c6.1-0.2,14.7-0.7,18.9-0.7s13.9,0.2,19,0.9c5.2,0.6,4.6,0.4,5.8,1.2c1.1,0.9,2.1,0.6,2.3,0.4
		c0.3-0.3-1-0.9-1-0.9s1,0.4,2.7,0.8c1.8,0.4,3.9,0.8,4.4,1c0.5,0.1,0.4,0.7,1,0.7c0.5,0,1.8-0.1,3.3,0.4c1.5,0.5,2.5,0.4,3.2,0.7
		c0.6,0.4,0.7,0.7,1.1,0.8c0.5,0,0.4-0.4,1.4,0c0.9,0.4,2.3,0.6,4.5,1.3c0.5,0.2,1.8,0.9,2.2,1C297.3,40.2,298.1,40.4,298.7,40.6
		L298.7,40.6z"/>
	<path class="st0" d="M289.5,25.6c0.1,0.2,0,0.4,0.3,0.4c0.3,0.1,0.4,0,0.7,0.1c0.3,0.1,0.3,0.1,0.4,0.3c0.1,0.3,0.3,0.4,0.5,0.3
		c0.3,0,0.4-0.4,0.2-0.4c-0.2-0.1-0.3-0.1-0.5-0.1c-0.3,0-0.3,0.1-0.4-0.1c-0.2-0.2-0.2-0.2-0.3-0.4c-0.2-0.2-0.2-0.3-0.5-0.3
		C289.4,25.6,289.5,25.6,289.5,25.6L289.5,25.6z"/>
	<path class="st0" d="M293.8,27.4c0.2,0.3-0.2,0.4,0.1,0.4c0.3,0.1,0.2,0,0.4,0.3c0.1,0.2,0.2,0.2,0.4,0.2c0.2-0.1,0.3,0.1,0.4-0.1
		c0-0.3,0-0.5-0.2-0.6c-0.3,0-0.2,0.1-0.3,0c-0.1-0.2,0-0.3-0.3-0.3C294,27.4,293.8,27.3,293.8,27.4L293.8,27.4z"/>
	<path class="st2" d="M281.6,27.4c0,0.3-0.1,0.4,0.1,0.5c0.3,0.1,0.5,0.1,0.9,0.2c0.4,0.1,0.5,0.2,1.1,0.3c0.4,0.1,0.7,0.3,1.1,0.4
		c0.4,0.1,0.5,0.1,1.1,0.2c0.5,0.2,0.5,0.2,0.8,0.3c0.4,0.1,0.6,0.3,1.1,0.4c0.4,0.1,0.5,0,1,0.2c0.5,0.1,0.5,0.1,0.9,0.3
		c0.3,0.1,0.7,0.2,1,0.2c0.2,0,0.5,0,0.5,0s-0.3-0.2-0.3-0.4c-0.1-0.2-0.4-0.8-1.1-0.8c-0.8,0.1-1.1-0.1-1.7-0.1
		c-0.4-0.1-0.8-0.1-1.1-0.2c-0.3-0.1-0.7-0.3-0.8-0.4c-0.2-0.1-0.4-0.4-0.6-0.6c-0.2-0.2-0.2-0.4-0.5-0.4c-0.4-0.2-1.1-0.3-1.5-0.3
		c-0.4,0-1.2-0.1-1.5,0C281.7,27.1,281.7,27.2,281.6,27.4"/>
	<path class="st0" d="M291.6,30.3c0.4-0.1,0.3-0.2,0.8-0.2c0.6,0,1.3,0.2,1.5,0.2c0.1,0,0.7,0,1.3,0.4c0.5,0.4,0.7,0.4,1,0.5
		c0.3,0.3,0.6,0.4,0.4,0.4c-0.2,0.1-0.8,0-1.1-0.2c-0.4-0.1-1-0.3-1.4-0.4c-0.5-0.1-0.8-0.2-1.1-0.3c-0.4,0-0.7-0.1-1-0.2
		C291.7,30.6,291.2,30.4,291.6,30.3L291.6,30.3z"/>
	<path class="st0" d="M302.3,32.3c-0.1,0.1,0.4,0.6,1,0.9c0.6,0.2,0.7,0.4,1.1,0.8c0.4,0.4,0.7,0.6,1.1,0.9c0.4,0.3,0.4,0.2,0.9,0.4
		c0.4,0.3,0.9,0.5,1.1,0.4c0.1-0.1,0-0.3-0.4-0.6c-0.3-0.4-1.4-1.1-1.9-1.5c-0.5-0.3-1.2-0.8-1.6-1
		C303.2,32.4,302.4,32.2,302.3,32.3L302.3,32.3z"/>
	<path class="st3" d="M33.2,61.7C18.1,61.7,9,72.1,9,84.7c0,12.6,9.3,22.9,24.2,22.9c14.1,0,23.7-10.3,23.7-22.9
		C56.9,72.1,47,61.7,33.2,61.7L33.2,61.7z M32.9,98.2L32.9,98.2c-7.3,0-13.2-6.1-13.2-13.4c0-7.4,6-13.5,13.2-13.5
		c7.4,0,13.1,6.1,13.1,13.5C46,92,40.3,98.2,32.9,98.2L32.9,98.2z"/>
	<path class="st3" d="M60.7,62.6h10.2v7.5c0,0,2.6-8.3,14-8.3c11.3,0,15.6,7.4,15.6,16.7c0,9.3,0,28.4,0,28.4H90c0,0,0-18.6,0-23.7
		s-1.4-11.8-8.4-11.8c-7.1,0-10.1,5.1-10.1,11.2c0,6,0,24.1,0,24.1H60.7V62.6L60.7,62.6z"/>
	<path class="st3" d="M127.4,99.2c-11.2-0.1-12.2-10.9-12.2-10.9H149c0-7.4,0-10.2-1.7-14.3c-1.8-4.1-6.1-12.5-18.9-12.5
		c-12.8,0-24,8.5-24,23c0,14.4,11.2,23.4,24.1,23.4c13,0,18.7-8.8,18.7-8.8l-7.8-6C139.4,93.2,135.2,99.2,127.4,99.2L127.4,99.2z
		 M126.8,69.7L126.8,69.7c11.7,0,11.3,10.6,11.3,10.6h-22.7C115.4,80.3,116.4,69.7,126.8,69.7L126.8,69.7z"/>
	<polygon class="st3" points="160.1,106.7 154.3,106.7 154.3,63.5 160.1,63.5 160.1,106.7 	"/>
	<path class="st3" d="M188.2,68c12.4,0,11,13.1,11,18c0,2.4,0,20.7,0,20.7h6c0,0,0-21,0-26.7c0-5.7-0.4-9.4-4.7-13.7
		c-1.7-1.6-5.9-3.7-11.1-3.7c-2.3,0-6.4,0.5-10,3.1c-3.6,2.5-4.6,4.3-5,5v-7.1h-6v43.1h5.9c0,0,0-14.8,0-19.6
		c0-5.3,0.1-8.9,2.5-12.8C179.3,70.3,182.9,68,188.2,68L188.2,68z"/>
	<path class="st3" d="M249.5,44.7V71c-1.4-2.2-7.1-8.5-17.5-8.5c-10.3,0-22.4,7.7-22.4,22.4c0,14.6,10.7,22.9,22.7,22.9
		c12.1,0,17.3-8.2,17.3-8.2v7.2h5.9v-62H249.5L249.5,44.7z M232.9,102.4L232.9,102.4c-10,0-16.8-7.6-16.8-17
		c0-10.3,6.8-17.6,16.8-17.6c9.4,0,17,8.2,17,17.6C249.9,94.8,242.3,102.4,232.9,102.4L232.9,102.4z"/>
	<polygon class="st3" points="269.5,106.7 263.7,106.7 263.7,63.8 269.5,63.8 269.5,106.7 	"/>
	<path class="st3" d="M271,50.7c0,2.6-2.1,4.6-4.6,4.6c-2.6,0-4.7-2-4.7-4.6c0-2.5,2.1-4.6,4.7-4.6C268.9,46.1,271,48.2,271,50.7
		L271,50.7z"/>
	<path class="st3" d="M161.8,50.7c0,2.6-2,4.6-4.6,4.6c-2.5,0-4.6-2-4.6-4.6c0-2.5,2.1-4.6,4.6-4.6
		C159.8,46.1,161.8,48.2,161.8,50.7L161.8,50.7z"/>
	<path class="st3" d="M310.9,95.6c0-7,0-15.3,0-18.1c0-2.9-0.3-9.7-7.8-13.4c-7.5-3.6-21-0.8-25.9,4.6l3.6,4.5c0,0,3.2-3.1,7.2-4.4
		c3.9-1.3,13.2-1.6,15.8,4.1c0,0,1.4,2.8,1.4,7.6c0,0-7.5,0.1-11,0.3c-3.2,0.2-19,1-19,15.3c0,3,1.8,11.7,15.5,11.7
		c10.8,0,14.6-7.9,14.6-7.9s0.4,7,1.1,7l5.3-0.2C311.6,106.7,310.9,102.5,310.9,95.6L310.9,95.6z M292.2,102.4L292.2,102.4
		c-13.4,0-14.3-14.5-0.4-16.3c0,0,9.6-1.5,13.4-0.7C305.2,85.4,306.9,102.4,292.2,102.4L292.2,102.4z"/>
	<path class="st1" d="M297,43.5c0,0.3,0.3,0.3,0.9,0.4c0.7,0.2,2.1,0.5,2.6,0.7c0.4,0.2,1.2,0.6,2.1,0.9c0.8,0.3,0.4,0-0.5-0.4
		c-0.9-0.5-1.1-0.5-1.3-1.1c-0.3-0.4-0.4-0.7-1.2-0.7c-0.8,0-1.7-0.2-1.9-0.1C297.4,43.2,297,43.3,297,43.5L297,43.5z"/>
	<polygon class="st3" points="244.9,151.5 241.3,151.5 241.3,128.1 244.9,128.1 244.9,151.5 	"/>
	<path class="st3" d="M245.3,117.9c0,1.5-1.2,2.7-2.7,2.7c-1.5,0-2.7-1.2-2.7-2.7c0-1.5,1.2-2.7,2.7-2.7
		C244.1,115.2,245.3,116.4,245.3,117.9L245.3,117.9z"/>
	<path class="st3" d="M251,127.9h2.9v4.3c0,0,2.6-4.9,8.3-4.9c5.7,0,9,4.1,9,11.5c0,7.4,0,12.6,0,12.6l-3.2,0c0,0,0-9.3,0-12.7
		c0-4.9-2.5-8.2-5.9-8.2c-3.4,0-7.7,0.8-7.7,11.2l0,9.6H251V127.9L251,127.9z"/>
	<polygon class="st3" points="217.9,151.2 214.3,151.2 214.3,112.8 217.9,112.8 217.9,151.2 	"/>
	<path class="st3" d="M215.2,127.7h1.9v4.3c0,0,2.6-4.9,8.3-4.9c5.7,0,9.1,4.1,9.1,11.5s0,12.6,0,12.6l-3.2,0c0,0,0-9.3,0-12.7
		c0-4.9-2.5-8.2-5.9-8.2c-3.4,0-7.7,0.8-7.7,11.2v9.6h-2.5V127.7L215.2,127.7z"/>
	<path class="st3" d="M288.8,127.2c-6.7,0-12.2,5.5-12.2,12.2c0,6.7,5.4,12.2,12.2,12.2c3.8,0,7.2-1.7,9.4-4.4v-15.5
		C296,128.9,292.6,127.2,288.8,127.2L288.8,127.2L288.8,127.2z M288.8,148.5c-5.1,0-9.2-4.1-9.2-9.2c0-5.1,4.1-9.2,9.2-9.2
		c5.1,0,9.2,4.1,9.2,9.2C298,144.4,293.9,148.5,288.8,148.5L288.8,148.5z"/>
	<path class="st3" d="M298.2,113.1v18.5c1.7,2.1,2.8,4.8,2.8,7.8c0,2.9-1,5.7-2.8,7.8v4.2h3.2v-38.1H298.2L298.2,113.1z"/>
	<path class="st3" d="M298.2,131.6v15.5c1.7-2.1,2.8-4.8,2.8-7.8C301,136.4,299.9,133.7,298.2,131.6L298.2,131.6z"/>
	<polygon class="st3" points="310.6,151.3 307,151.3 307,127.9 310.6,127.9 310.6,151.3 	"/>
	<path class="st3" d="M311,117.7c0,1.5-1.2,2.7-2.7,2.7c-1.5,0-2.7-1.2-2.7-2.7c0-1.5,1.2-2.7,2.7-2.7
		C309.8,115,311,116.2,311,117.7L311,117.7z"/>
</g>
</svg>
